<svg xmlns="http://www.w3.org/2000/svg"  viewBox="0 0 100 100" width="100px" height="100px"><path d="M 50.5 11 C 46.746 11 43.458953 13.477953 42.376953 17.001953 C 38.849953 17.067953 36 19.957 36 23.5 C 36 23.673 36.007484 23.846531 36.021484 24.019531 C 35.847484 24.006531 35.673 24 35.5 24 C 31.525 24 28.263625 27.108484 28.015625 31.021484 C 27.844625 31.007484 27.672 31 27.5 31 C 23.916 31 21 33.916 21 37.5 C 21 37.689 21.008391 37.877406 21.025391 38.066406 C 17.952325 38.496509 15.52 40.931551 15.078125 44 L 13 44 C 12.73 44 12.479063 44.099062 12.289062 44.289062 C 12.099062 44.479062 12 44.74 12 45 C 12 45.25 12.35 68.550469 33 76.980469 L 33 77 L 33 83 C 33 83.55 33.45 84 34 84 L 66 84 C 66.55 84 67 83.55 67 83 L 67 76.970703 C 87.65 68.550703 88 45.25 88 45 C 88 44.74 87.900937 44.479062 87.710938 44.289062 C 87.520937 44.099063 87.27 44 87 44 L 84.929688 44 C 84.511606 40.729398 82.084013 38.002919 78.859375 37.232422 C 78.334375 34.198422 75.990422 31.767203 72.982422 31.158203 C 72.809422 27.342203 69.781375 24.258625 65.984375 24.015625 C 65.736375 20.145625 62.539047 17.065953 58.623047 17.001953 C 57.541047 13.477953 54.253 11 50.5 11 z M 50.5 13 C 53.587225 13 56.261666 15.192091 56.869141 18.214844 C 55.211464 18.649143 53.757892 19.72746 52.876953 21.248047 C 52.737953 21.487047 52.819594 21.792641 53.058594 21.931641 C 53.295594 22.070641 53.603187 21.989 53.742188 21.75 C 54.725187 20.054 56.548 19 58.5 19 C 61.533 19 64 21.467 64 24.5 C 64 24.651 63.987562 24.799266 63.976562 24.947266 C 63.953562 25.239266 64.060578 25.527375 64.267578 25.734375 C 64.474578 25.941375 64.758734 26.045437 65.052734 26.023438 C 65.199734 26.011437 65.349 26 65.5 26 C 68.533 26 71 28.467 71 31.5 C 71 31.646 70.987562 31.789594 70.976562 31.933594 L 70.976562 32.044922 C 70.422764 32.091078 69.870341 32.188065 69.332031 32.378906 C 69.072031 32.470906 68.937297 32.754625 69.029297 33.015625 C 69.101297 33.220625 69.294 33.349609 69.5 33.349609 C 69.555 33.349609 69.612969 33.339312 69.667969 33.320312 C 70.267969 33.107313 70.884 33 71.5 33 C 71.511013 33 71.520413 32.994843 71.53125 32.994141 L 71.904297 33.021484 C 74.625297 33.219484 76.806469 35.422484 76.980469 38.146484 C 77.011469 38.628484 77.38375 38.991641 77.84375 39.056641 C 77.84375 39.058641 77.839844 39.072266 77.839844 39.072266 C 80.443844 39.437266 82.481063 41.478 82.914062 44 L 17.101562 44 C 17.566562 41.723 19.589734 40.003906 22.052734 40.003906 C 22.066734 40.001906 22.167641 40.008766 22.181641 40.009766 C 22.489641 40.016766 22.806906 39.878953 23.003906 39.626953 C 23.200906 39.374953 23.265734 39.043328 23.177734 38.736328 C 23.060734 38.325328 23 37.909 23 37.5 C 23 35.019 25.019 33 27.5 33 C 27.922 33 28.345719 33.062594 28.761719 33.183594 C 28.853719 33.210594 28.949969 33.222656 29.042969 33.222656 C 29.274969 33.222656 29.502547 33.141281 29.685547 32.988281 C 29.941547 32.773281 30.072156 32.446281 30.035156 32.113281 C 30.013156 31.912281 30 31.708 30 31.5 C 30 28.467 32.467 26 35.5 26 C 35.734175 26 35.970665 26.019214 36.207031 26.050781 C 36.245147 26.055699 36.282443 26.062662 36.320312 26.068359 C 36.552776 26.104342 36.784888 26.150741 37.015625 26.216797 C 37.020158 26.218099 37.024769 26.21939 37.029297 26.220703 L 37.167969 26.259766 C 39.388105 26.967569 41 29.048116 41 31.5 C 41 31.776 41.224 32 41.5 32 C 41.776 32 42 31.776 42 31.5 C 42 29.002806 40.582607 26.832325 38.511719 25.744141 L 38.238281 24.935547 C 38.080281 24.464547 38 23.982 38 23.5 C 38 21.019 40.019 19 42.5 19 C 42.679 19 42.853344 19.013203 43.027344 19.033203 C 43.542344 19.096203 44.025953 18.747375 44.126953 18.234375 C 44.724953 15.202375 47.405 13 50.5 13 z M 45.5 21 C 44.122 21 43 22.122 43 23.5 C 43 24.878 44.122 26 45.5 26 C 46.878 26 48 24.878 48 23.5 C 48 22.122 46.878 21 45.5 21 z M 45.5 22 C 46.327 22 47 22.673 47 23.5 C 47 24.327 46.327 25 45.5 25 C 44.673 25 44 24.327 44 23.5 C 44 22.673 44.673 22 45.5 22 z M 52.673828 23.007812 C 52.397828 22.957813 52.142656 23.145969 52.097656 23.417969 C 52.032656 23.805969 52 24.159 52 24.5 C 52 24.776 52.224 25 52.5 25 C 52.776 25 53 24.776 53 24.5 C 53 24.215 53.026031 23.914031 53.082031 23.582031 C 53.128031 23.310031 52.945828 23.053812 52.673828 23.007812 z M 58.5 24 C 57.122 24 56 25.122 56 26.5 C 56 27.878 57.122 29 58.5 29 C 59.878 29 61 27.878 61 26.5 C 61 25.122 59.878 24 58.5 24 z M 58.5 25 C 59.327 25 60 25.673 60 26.5 C 60 27.327 59.327 28 58.5 28 C 57.673 28 57 27.327 57 26.5 C 57 25.673 57.673 25 58.5 25 z M 50.5 32 C 49.122 32 48 33.122 48 34.5 C 48 35.878 49.122 37 50.5 37 C 51.878 37 53 35.878 53 34.5 C 53 33.122 51.878 32 50.5 32 z M 50.5 33 C 51.327 33 52 33.673 52 34.5 C 52 35.327 51.327 36 50.5 36 C 49.673 36 49 35.327 49 34.5 C 49 33.673 49.673 33 50.5 33 z M 67.527344 33.537109 C 67.399469 33.530359 67.269969 33.572063 67.167969 33.664062 C 66.746969 34.042063 66.380984 34.462156 66.083984 34.910156 C 65.930984 35.140156 65.994609 35.450516 66.224609 35.603516 C 66.309609 35.659516 66.405 35.685547 66.5 35.685547 C 66.662 35.685547 66.819969 35.606891 66.917969 35.462891 C 67.167969 35.084891 67.477937 34.729203 67.835938 34.408203 C 68.040938 34.223203 68.058047 33.908125 67.873047 33.703125 C 67.780547 33.600125 67.655219 33.543859 67.527344 33.537109 z M 34.5 36 C 33.122 36 32 37.122 32 38.5 C 32 39.878 33.122 41 34.5 41 C 35.878 41 37 39.878 37 38.5 C 37 37.122 35.878 36 34.5 36 z M 34.5 37 C 35.327 37 36 37.673 36 38.5 C 36 39.327 35.327 40 34.5 40 C 33.673 40 33 39.327 33 38.5 C 33 37.673 33.673 37 34.5 37 z M 61.5 37 C 60.122 37 59 38.122 59 39.5 C 59 40.878 60.122 42 61.5 42 C 62.878 42 64 40.878 64 39.5 C 64 38.122 62.878 37 61.5 37 z M 61.5 38 C 62.327 38 63 38.673 63 39.5 C 63 40.327 62.327 41 61.5 41 C 60.673 41 60 40.327 60 39.5 C 60 38.673 60.673 38 61.5 38 z M 14.050781 46 L 16 46 L 84 46 L 85.949219 46 C 85.609219 50.62 83.039375 69.8 63.859375 76 L 36.140625 76 C 16.960625 69.8 14.390781 50.62 14.050781 46 z M 81.080078 51.007812 C 80.887891 51.045781 80.726953 51.197891 80.689453 51.400391 C 80.549453 52.050391 80.389219 52.719375 80.199219 53.359375 C 80.129219 53.629375 80.280781 53.910469 80.550781 53.980469 C 80.600781 53.990469 80.639453 54 80.689453 54 C 80.899453 54 81.099922 53.860625 81.169922 53.640625 C 81.359922 52.970625 81.529922 52.279609 81.669922 51.599609 C 81.719922 51.329609 81.549297 51.069766 81.279297 51.009766 C 81.211797 50.994766 81.144141 50.995156 81.080078 51.007812 z M 80.013672 55.001953 C 79.820547 55.012734 79.645312 55.135078 79.570312 55.330078 C 79.210313 56.340078 78.790078 57.329297 78.330078 58.279297 C 78.210078 58.529297 78.320547 58.829219 78.560547 58.949219 C 78.630547 58.979219 78.709297 59 78.779297 59 C 78.969297 59 79.150469 58.900703 79.230469 58.720703 C 79.710469 57.740703 80.139766 56.709922 80.509766 55.669922 C 80.609766 55.409922 80.470938 55.119297 80.210938 55.029297 C 80.145938 55.006797 80.078047 54.998359 80.013672 55.001953 z M 77.78125 60.005859 C 77.58625 59.980547 77.384297 60.07 77.279297 60.25 C 74.829297 64.45 71.449766 67.750547 67.259766 70.060547 C 67.019766 70.190547 66.930547 70.500234 67.060547 70.740234 C 67.150547 70.900234 67.33 71 67.5 71 C 67.58 71 67.670234 70.979453 67.740234 70.939453 C 72.100234 68.539453 75.600391 65.11 78.150391 60.75 C 78.290391 60.51 78.210703 60.210313 77.970703 60.070312 C 77.910703 60.035313 77.84625 60.014297 77.78125 60.005859 z M 35 78 L 65 78 L 65 82 L 35 82 L 35 78 z"/></svg>